<svg xmlns="http://www.w3.org/2000/svg" version="1.1" width="500" height="500">
    <path
        d="M0 0 C0.72408879 -0.00297112 1.44817757 -0.00594224 2.19420844 -0.0090034 C4.6152273 -0.01765976 7.03619653 -0.01919605 9.45722961 -0.02069092 C11.19541529 -0.0253213 12.93359996 -0.03034626 14.67178345 -0.03573608 C19.39101618 -0.0488418 24.11023471 -0.0553016 28.82948279 -0.05974674 C31.78027331 -0.06268072 34.73105996 -0.06678617 37.68184853 -0.07125092 C46.92107998 -0.0849217 56.16030259 -0.09459013 65.39954346 -0.09845281 C76.05187471 -0.10293115 86.70407748 -0.12047044 97.35636967 -0.1494534 C105.59859945 -0.17109769 113.84079315 -0.18115857 122.08305103 -0.18249393 C127.0017849 -0.18354008 131.92039793 -0.18940744 136.83910179 -0.20731354 C141.46925968 -0.22384151 146.09920652 -0.22592684 150.72938347 -0.21717453 C152.42321591 -0.21640665 154.11705992 -0.22071379 155.81086349 -0.23063278 C169.82404531 -0.30784314 180.9625646 1.11604775 191.64985657 10.92169189 C201.02865688 20.80690691 202.86875429 31.81692216 202.82197571 44.91925049 C202.82212173 45.99301941 202.82226776 47.06678833 202.82241821 48.1730957 C202.82172321 51.71171103 202.81395008 55.2502733 202.80610657 58.78887939 C202.80424093 61.24653088 202.80281771 63.70418273 202.80181885 66.16183472 C202.7980052 72.62265046 202.78818472 79.08344364 202.77711487 85.54425049 C202.76687599 92.14011327 202.76231592 98.7359797 202.75727844 105.33184814 C202.74656144 118.26805568 202.72969172 131.20424758 202.70845032 144.14044189 C204.68589737 144.14591034 204.68589737 144.14591034 206.70329285 144.15148926 C219.15018363 144.18849167 231.59682822 144.24632208 244.04353142 144.32434464 C250.44193903 144.36378928 256.84020963 144.39599277 263.23872375 144.41143799 C269.41806515 144.42662406 275.59702979 144.46110518 281.77620316 144.50875092 C284.12916406 144.52354443 286.48217875 144.53148174 288.835186 144.53232574 C292.14083894 144.53470316 295.44545724 144.5618469 298.75093079 144.59454346 C299.71550705 144.58951309 300.68008331 144.58448273 301.67388916 144.57929993 C310.50317685 144.71368942 318.70101033 147.16790513 325.16938782 153.42169189 C331.9923832 161.04128064 332.79571455 168.53115996 332.32954407 178.51153564 C331.59419249 186.17131839 327.77047528 191.46288643 322.09516907 196.42559814 C319.70845032 198.14044189 319.70845032 198.14044189 317.70845032 198.14044189 C317.69912388 229.79357488 317.7203163 261.4465018 317.78424061 293.09956588 C317.79175684 296.83470771 317.79901229 300.56985002 317.80610657 304.30499268 C317.80752332 305.04860651 317.80894007 305.79222035 317.81039976 306.55836794 C317.83273112 318.60606129 317.83392617 330.65366903 317.82733895 342.7013773 C317.82105151 355.05929049 317.8374109 367.41702332 317.87488639 379.77488208 C317.89730295 387.40323394 317.90195862 395.03117528 317.88404696 402.6595408 C317.87221283 408.50452423 317.89185536 414.34913262 317.92340279 420.19405174 C317.93139435 422.59506999 317.92907028 424.99614731 317.91584206 427.39714241 C317.89934185 430.66769292 317.91943557 433.93601015 317.94895935 437.2064209 C317.93537325 438.16361566 317.92178715 439.12081042 317.90778935 440.10701108 C317.95168375 442.59715072 318.03662535 444.74210516 318.70845032 447.14044189 C321.50177753 449.70513766 321.50177753 449.70513766 324.70845032 451.14044189 C326.57173157 453.39434814 326.57173157 453.39434814 328.02095032 455.70294189 C328.51208313 456.46735596 329.00321594 457.23177002 329.50923157 458.01934814 C332.11313833 462.62495522 331.92562388 466.81970722 331.95845032 471.95294189 C331.97907532 472.74764893 331.99970032 473.54235596 332.02095032 474.36114502 C332.07428187 482.42087653 328.99258361 487.41869568 323.67720032 493.30841064 C317.58607842 498.97653797 310.70335934 500.25176971 302.63252258 500.33331299 C301.92795929 500.34149048 301.223396 500.34966797 300.4974823 500.35809326 C298.17328221 500.38284284 295.84914258 500.3994328 293.52485657 500.41387939 C292.72938856 500.41920307 291.93392056 500.42452675 291.11434746 500.43001175 C286.90703675 500.45669289 282.69975525 500.47608721 278.49238586 500.49053955 C275.01295293 500.50389818 271.53410377 500.53179234 268.05488586 500.5725708 C263.84862879 500.62186396 259.64290252 500.64665543 255.43636894 500.65376663 C253.83556759 500.66047965 252.23477812 500.67570325 250.63414192 500.69965744 C248.39338986 500.73128912 246.1546894 500.73135073 243.91377258 500.72393799 C242.00326866 500.73606827 242.00326866 500.73606827 240.0541687 500.7484436 C235.83475757 499.98166981 234.33510499 498.45765252 231.70845032 495.14044189 C231.70845032 494.48044189 231.70845032 493.82044189 231.70845032 493.14044189 C229.10084185 493.1734496 226.50182186 493.24055669 223.89595032 493.32794189 C223.15796204 493.33374268 222.41997375 493.33954346 221.65962219 493.34552002 C219.21280369 493.39360705 219.21280369 493.39360705 215.70845032 494.14044189 C213.75596625 496.51778621 213.75596625 496.51778621 212.70845032 499.14044189 C210.01315954 500.48808728 207.93163778 500.26838087 204.91209316 500.27186966 C203.67008913 500.2757108 202.42808511 500.27955195 201.14844459 500.28350949 C199.75743062 500.28272915 198.36641669 500.28185035 196.97540283 500.28088379 C195.50753643 500.28346596 194.03967073 500.2864787 192.57180601 500.28988719 C188.52333487 500.29797829 184.47488144 500.29974794 180.42640316 500.30048466 C176.06562072 500.30233162 171.70484754 500.30987727 167.34407043 500.31661987 C157.80050177 500.33021999 148.25693729 500.33623089 138.71336055 500.34063053 C132.75562815 500.34339084 126.79789739 500.34762788 120.84016609 500.3521347 C104.34992417 500.36433093 87.85968355 500.37462865 71.36943722 500.3780098 C70.3133343 500.37822936 69.25723139 500.37844893 68.16912535 500.37867515 C67.11046425 500.37889343 66.05180316 500.3791117 64.96106142 500.3793366 C62.81574118 500.37978006 60.67042094 500.38022663 58.52510071 500.38067627 C57.46094303 500.3808977 56.39678535 500.38111913 55.30038048 500.38134727 C38.06357537 500.38529385 20.82681257 500.40274204 3.59002381 500.42603579 C-14.10042879 500.44974984 -31.79086016 500.46221172 -49.4813289 500.46337771 C-59.41629777 500.46429459 -69.35121154 500.47004984 -79.28616524 500.48819733 C-87.74802346 500.50359922 -96.20980958 500.50871835 -104.67167915 500.50045922 C-108.98870539 500.49655267 -113.30558646 500.49748249 -117.62259483 500.51151657 C-121.57742462 500.5242555 -125.53200014 500.52305809 -129.48682957 500.51092586 C-130.91491751 500.50896881 -132.34302346 500.5120477 -133.7710861 500.52077022 C-144.84010737 500.58407935 -153.30286832 499.81505864 -161.56498718 492.04669189 C-168.39895057 484.50150155 -168.80621746 476.27145005 -168.63920593 466.55450439 C-168.37803002 461.32005822 -166.9575541 457.90633744 -163.29154968 454.14044189 C-162.42529968 453.19169189 -161.55904968 452.24294189 -160.66654968 451.26544189 C-158.29154968 449.14044189 -158.29154968 449.14044189 -155.29154968 447.14044189 C-154.83653626 445.23553538 -154.83653626 445.23553538 -154.90678883 443.00562096 C-154.89260401 441.69859956 -154.89260401 441.69859956 -154.87813264 440.3651737 C-154.88298022 439.40215325 -154.88782779 438.43913281 -154.89282227 437.44692993 C-154.88617544 436.42841654 -154.87952861 435.40990316 -154.87268037 434.36052573 C-154.85393185 430.92557384 -154.85666362 427.49096666 -154.85917664 424.05596924 C-154.85016672 421.6024984 -154.83984142 419.1490321 -154.82829285 416.6955719 C-154.80635115 411.40209228 -154.79361421 406.1087115 -154.78916359 400.81519699 C-154.78271292 393.16162975 -154.75979478 385.50818203 -154.73282029 377.85466285 C-154.68950798 365.43822057 -154.65956666 353.02178331 -154.63798523 340.60528564 C-154.61698882 328.54178397 -154.58972547 316.4783234 -154.55400085 304.41485596 C-154.55180203 303.67161951 -154.5496032 302.92838305 -154.54733775 302.16262428 C-154.53626843 298.4341315 -154.52507556 294.7056391 -154.51382124 290.97714686 C-154.42057325 260.03161278 -154.34922646 229.08606369 -154.29154968 198.14044189 C-154.9140863 197.84097656 -155.53662292 197.54151123 -156.17802429 197.23297119 C-158.46632396 196.0500971 -160.01518559 194.75066808 -161.85404968 192.95294189 C-162.43283875 192.40251221 -163.01162781 191.85208252 -163.60795593 191.28497314 C-169.44932145 183.84434746 -169.27695123 175.27417442 -168.58891296 166.24151611 C-167.63371981 159.49242559 -163.52728027 154.87434848 -158.41654968 150.70294189 C-151.27245664 145.52270127 -144.09812527 144.69546148 -135.56108093 144.70806885 C-134.51628067 144.6978772 -133.47148041 144.68768555 -132.39501953 144.67718506 C-128.964641 144.64715245 -125.53454219 144.63780379 -122.10404968 144.62872314 C-119.71650776 144.61186929 -117.32897468 144.5937181 -114.94145203 144.57432556 C-108.67469544 144.5268965 -102.40797469 144.49704106 -96.14109802 144.47088623 C-89.7393537 144.44104505 -83.33773272 144.39452689 -76.93608093 144.34942627 C-64.38797102 144.26347375 -51.83983114 144.19552571 -39.29154968 144.14044189 C-39.31773376 142.83373535 -39.34391785 141.52702881 -39.37089539 140.1807251 C-39.46149293 135.32608202 -39.51883413 130.47151344 -39.56620789 125.61627197 C-39.59133019 123.51620919 -39.62543426 121.41623366 -39.66874695 119.31646729 C-39.7294984 116.29533349 -39.75778231 113.27535694 -39.77983093 110.25372314 C-39.80563736 109.31708328 -39.83144379 108.38044342 -39.85803223 107.41542053 C-39.86001451 102.79355809 -39.81983663 100.81456671 -36.8860321 97.07086182 C-34.29154968 95.14044189 -34.29154968 95.14044189 -32.29154968 94.14044189 C-31.82153936 90.86488582 -31.82153936 90.86488582 -31.66654968 87.07794189 C-31.59178406 85.78759033 -31.51701843 84.49723877 -31.43998718 83.16778564 C-31.36651062 81.66925049 -31.36651062 81.66925049 -31.29154968 80.14044189 C-32.05467468 79.91356689 -32.81779968 79.68669189 -33.60404968 79.45294189 C-37.02562616 77.78193943 -37.70669384 76.59473187 -39.29154968 73.14044189 C-39.57994773 70.18862444 -39.71257209 67.45599029 -39.68998718 64.50762939 C-39.69429245 63.25890549 -39.69429245 63.25890549 -39.69868469 61.98495483 C-39.70072193 60.22492797 -39.69521588 58.46487829 -39.68266296 56.70489502 C-39.66672592 54.04485738 -39.68245927 51.38636746 -39.70170593 48.72637939 C-39.7202003 34.60430888 -38.37807937 22.06171013 -28.47514343 11.13653564 C-20.14660266 3.34640559 -11.28126748 0.02591277 0 0 Z "
        fill="#0B0B0B" transform="translate(168.2915496826172,-0.14044189453125)" />
    <path
        d="M0 0 C1.0723776 -0.00551503 1.0723776 -0.00551503 2.16641939 -0.01114148 C4.56834078 -0.02217763 6.97021891 -0.02602207 9.37216187 -0.02983093 C11.09197121 -0.03609574 12.81177919 -0.04274255 14.53158569 -0.04974365 C20.18595435 -0.07078791 25.84032329 -0.08114773 31.49472046 -0.09111023 C33.44193918 -0.09515792 35.38915776 -0.09927485 37.33637619 -0.10346031 C46.48644266 -0.12251433 55.63650105 -0.13674381 64.78658354 -0.14507228 C75.34333279 -0.15483996 85.89987209 -0.18114637 96.45654738 -0.22157317 C104.61889085 -0.25175622 112.78117422 -0.26654332 120.9435724 -0.26985329 C125.8170766 -0.27220167 130.69035656 -0.28113425 135.56380081 -0.30631447 C140.15211458 -0.32963788 144.74005718 -0.33381128 149.32841492 -0.32355309 C151.0081595 -0.32305862 152.68792261 -0.32935269 154.36761093 -0.34310913 C164.59774082 -0.42217233 172.09220194 0.41124223 180.89315796 5.95967102 C185.98423674 11.20048741 187.1433475 17.90103554 187.14120579 24.91943645 C187.14235963 25.6151312 187.14351348 26.31082594 187.14470229 27.02760234 C187.14736481 29.37613193 187.14284976 31.72459398 187.13841248 34.07312012 C187.13884825 35.7668776 187.13972328 37.46063501 187.14100164 39.15439206 C187.14324535 43.82226784 187.13922699 48.49012081 187.13422358 53.15799367 C187.1299175 58.18661778 187.13136562 63.21524053 187.13212585 68.24386597 C187.13265099 76.96081028 187.12950528 85.67774713 187.12388802 94.39468956 C187.1157716 106.99802884 187.11315765 119.6013645 187.11190002 132.20470611 C187.10970973 152.65126873 187.10305025 173.09782736 187.09359741 193.54438782 C187.08442272 213.40994751 187.07734216 233.27550612 187.0730896 253.1410675 C187.07282688 254.36494752 187.07256415 255.58882754 187.07229347 256.84979483 C187.07098846 262.98945213 187.06972474 269.12910944 187.06848156 275.26876676 C187.05810965 326.22823775 187.04021732 377.18770387 187.01815796 428.14717102 C173.15815796 428.14717102 159.29815796 428.14717102 145.01815796 428.14717102 C144.97948608 418.72283508 144.97948608 418.72283508 144.94003296 409.10810852 C144.91486296 405.12499491 144.88852891 401.14195712 144.85800171 397.15888977 C144.8096709 390.83841168 144.76562469 384.51810909 144.74716187 378.19746399 C144.7320048 373.10090501 144.69757582 368.00480549 144.64984894 362.90845108 C144.6350254 360.96527223 144.62711639 359.02202778 144.62627411 357.07879257 C144.62390564 354.35418104 144.59683596 351.6308405 144.5640564 348.90644836 C144.56908676 348.10515503 144.57411713 347.30386169 144.57929993 346.47828674 C144.48228927 341.25782849 143.42977451 338.31247305 140.01815796 334.14717102 C137.895439 332.28717115 137.895439 332.28717115 135.58065796 330.89717102 C134.83944702 330.41763977 134.09823608 329.93810852 133.33456421 329.44404602 C128.01769692 326.46731762 123.56618073 325.84970796 117.51522827 325.85664368 C116.67064056 325.84992645 115.82605286 325.84320923 114.95587158 325.83628845 C112.16928183 325.81732281 109.38293321 325.81338469 106.59628296 325.81123352 C104.65200706 325.80480357 102.70773213 325.79807506 100.76345825 325.7910614 C96.6881791 325.77909148 92.61298469 325.77538018 88.53768921 325.77656555 C83.33143557 325.77676849 78.12572935 325.74949146 72.91960526 325.71502113 C68.90283748 325.69271249 64.8862005 325.68872926 60.86937714 325.689785 C58.95094673 325.68743405 57.03251245 325.6786392 55.11414337 325.66312027 C52.42193533 325.64338406 49.73089518 325.64932836 47.03866577 325.66133118 C46.25601349 325.65009216 45.47336121 325.63885315 44.66699219 325.62727356 C36.82059561 325.71555678 29.68050316 328.64660711 24.01815796 334.14717102 C19.93885374 339.16308463 19.43335616 342.70948133 19.47225952 348.90644836 C19.46192184 349.76563873 19.45158417 350.6248291 19.44093323 351.51005554 C19.41156345 354.33459916 19.41000729 357.15842437 19.40878296 359.98310852 C19.39379738 361.94752871 19.37706943 363.91193631 19.3586731 365.87632751 C19.3150299 371.0350961 19.29500713 376.19369472 19.27993774 381.35261536 C19.25691017 387.54858394 19.20448396 393.74436541 19.15699768 399.94018555 C19.08822097 409.34256285 19.05674133 418.74440298 19.01815796 428.14717102 C5.15815796 428.14717102 -8.70184204 428.14717102 -22.98184204 428.14717102 C-22.98548767 423.83164658 -22.9891333 419.51612213 -22.9928894 415.06982422 C-23.0281388 375.5290026 -23.0831329 335.98824761 -23.15976299 296.44748376 C-23.16978089 291.26901066 -23.17962495 286.09053724 -23.18936157 280.9120636 C-23.19130295 279.88108843 -23.19324432 278.85011327 -23.19524452 277.78789643 C-23.22629662 261.07718873 -23.24325412 244.36649477 -23.25503626 227.65576365 C-23.26743122 210.51907178 -23.29489506 193.38245225 -23.33645511 176.24580604 C-23.36163803 165.66483863 -23.37495584 155.08399113 -23.37327161 144.50299332 C-23.37324194 137.25497122 -23.38780062 130.00707159 -23.41400632 122.75909718 C-23.42870733 118.57242311 -23.4368085 114.38600021 -23.42764473 110.19930458 C-23.41940557 106.37042868 -23.42937941 102.54205918 -23.45417866 98.71325872 C-23.45989958 97.32426207 -23.45878971 95.93521799 -23.45035449 94.54623517 C-23.43990734 92.66560502 -23.45620836 90.78488205 -23.47403336 88.90430737 C-23.47555224 87.85741841 -23.47707112 86.81052946 -23.47863603 85.73191661 C-23.7465982 83.04650823 -23.7465982 83.04650823 -25.76358008 81.41235 C-27.79720045 80.25248079 -29.88786814 79.19415797 -31.98184204 78.14717102 C-31.65184204 73.52717102 -31.32184204 68.90717102 -30.98184204 64.14717102 C-32.63184204 63.48717102 -34.28184204 62.82717102 -35.98184204 62.14717102 C-39.65673923 57.8975079 -39.39107744 53.63500765 -39.30996704 48.30342102 C-39.30809387 47.45670837 -39.3062207 46.60999573 -39.30429077 45.73762512 C-39.29758616 43.95238795 -39.28370333 42.16716508 -39.26309204 40.3820343 C-39.23194831 37.65647135 -39.22211794 34.93148806 -39.21621704 32.20576477 C-39.20704539 30.46747651 -39.1966691 28.72919409 -39.18496704 26.99092102 C-39.18071716 26.17933533 -39.17646729 25.36774963 -39.17208862 24.53157043 C-39.12280415 20.6109235 -38.93989712 16.97555143 -37.98184204 13.14717102 C-37.65184204 13.14717102 -37.32184204 13.14717102 -36.98184204 13.14717102 C-36.97819641 13.71680069 -36.97455078 14.28643036 -36.97079468 14.87332153 C-36.92903029 20.79453032 -36.85972834 26.71495956 -36.77432251 32.63569641 C-36.74607185 34.84622913 -36.7248778 37.05686364 -36.71084595 39.26753235 C-36.68947335 42.44278736 -36.64285174 45.61681322 -36.59121704 48.79170227 C-36.5899884 49.78241226 -36.58875977 50.77312225 -36.5874939 51.79385376 C-36.56777527 52.71458176 -36.54805664 53.63530975 -36.52774048 54.5839386 C-36.51885803 55.39446182 -36.50997559 56.20498505 -36.50082397 57.04006958 C-36.13564261 59.30353695 -36.13564261 59.30353695 -34.18209839 60.9519043 C-30.93781127 62.71433005 -28.49253049 61.88981665 -24.98184204 61.14717102 C-24.0670923 58.40292181 -23.86187011 56.82316767 -23.87173462 54.00215149 C-23.87115555 53.17053497 -23.87057648 52.33891846 -23.86997986 51.48210144 C-23.87208969 50.58524628 -23.87419952 49.68839111 -23.87637329 48.76435852 C-23.86291017 46.8554931 -23.84788574 44.94663817 -23.83145142 43.03779602 C-23.80868677 40.03579956 -23.79428867 37.03498391 -23.80679321 34.03291321 C-23.8156639 31.13004021 -23.78657671 28.22949077 -23.75137329 25.32685852 C-23.76360428 24.44214874 -23.77583527 23.55743896 -23.78843689 22.6459198 C-23.65681358 15.79461209 -21.45244942 11.31948339 -16.98184204 6.14717102 C-11.55336073 1.33207258 -7.1657229 0.02385996 0 0 Z "
        fill="#FCF5E3" transform="translate(167.98184204101563,15.852828979492188)" />
    <path
        d="M0 0 C33.66 0 67.32 0 102 0 C102 80.19 102 160.38 102 243 C68.34 243 34.68 243 0 243 C0 162.81 0 82.62 0 0 Z "
        fill="#FAE5B4" transform="translate(369,201)" />
    <path
        d="M0 0 C33.66 0 67.32 0 102 0 C102 80.19 102 160.38 102 243 C68.34 243 34.68 243 0 243 C0 162.81 0 82.62 0 0 Z "
        fill="#FBE5B4" transform="translate(29,201)" />
    <path
        d="M0 0 C0.77134754 -0.00641296 1.54269509 -0.01282591 2.3374168 -0.0194332 C4.9255801 -0.03605401 7.5128202 -0.02417895 10.10099888 -0.01244164 C11.97385393 -0.01848212 13.84670405 -0.02625981 15.71954542 -0.03562677 C20.8688744 -0.05623728 26.01792567 -0.05181047 31.16727769 -0.04326558 C36.71953599 -0.03834027 42.27172663 -0.0563479 47.8239603 -0.07134056 C58.70219899 -0.09686389 69.58033901 -0.10041835 80.4586026 -0.09574004 C89.29851455 -0.09217684 98.1383965 -0.09566617 106.97830486 -0.10418892 C108.23548487 -0.1053793 109.49266487 -0.10656968 110.78794124 -0.10779613 C113.34172992 -0.11021957 115.8955186 -0.11264784 118.44930727 -0.11508088 C135.60081748 -0.1306595 152.75231637 -0.13849058 169.90383148 -0.13044739 C170.90995038 -0.12997826 170.90995038 -0.12997826 171.93639492 -0.12949965 C175.33602762 -0.12788808 178.73566029 -0.12619654 182.13529294 -0.12447305 C182.81047513 -0.12413087 183.48565732 -0.1237887 184.18129957 -0.12343615 C185.54668167 -0.12274284 186.91206376 -0.12204578 188.27744585 -0.12134498 C209.52595189 -0.11062899 230.77429198 -0.12649551 252.02276707 -0.16341209 C275.89366982 -0.20483621 299.76447049 -0.22623849 323.63542086 -0.21826112 C336.27544407 -0.21443194 348.91531606 -0.21946221 361.55531216 -0.2476902 C372.3151667 -0.27147585 383.07477694 -0.274375 393.83463471 -0.25010987 C399.32620007 -0.23830294 404.81731811 -0.23621348 410.3088541 -0.26011467 C415.33440037 -0.28173386 420.35912321 -0.27574547 425.38463015 -0.2475913 C427.20421291 -0.24226998 429.02385919 -0.24711628 430.84337985 -0.26306303 C446.14740291 -0.38789919 446.14740291 -0.38789919 450.75579262 3.43072891 C453.62210915 7.05392425 454.33069 8.46724231 454.31597996 12.94645119 C454.31855808 13.72891212 454.32113621 14.51137306 454.32379246 15.31754494 C454.11581237 18.74921639 453.22792891 20.46245402 451.08653355 23.15722084 C447.42913597 26.1277108 445.53266279 26.13437097 440.86212254 26.13663673 C440.14284077 26.14390785 439.423559 26.15117897 438.68248081 26.15867043 C436.31631767 26.17720265 433.95167392 26.16122453 431.58551121 26.14566994 C429.93833663 26.15371096 428.29117244 26.16422959 426.64402866 26.1771183 C422.31609848 26.20564176 417.98864755 26.20624509 413.66064548 26.1992588 C406.7228404 26.19192817 399.78518947 26.22318646 392.84751034 26.26170731 C390.42216073 26.27058157 387.9971427 26.26524752 385.57179356 26.25814247 C384.09174603 26.26152543 382.61169929 26.26527424 381.13165379 26.26944923 C379.83657398 26.26769188 378.54149418 26.26593452 377.20716953 26.26412392 C374.07775123 26.1904597 374.07775123 26.1904597 372.19097996 28.50895119 C371.39144146 32.43395837 370.81363251 35.68298605 372.19097996 39.50895119 C370.69097996 38.13395119 370.69097996 38.13395119 369.19097996 36.50895119 C369.19097996 35.84895119 369.19097996 35.18895119 369.19097996 34.50895119 C360.77597996 35.00395119 360.77597996 35.00395119 352.19097996 35.50895119 C351.53097996 33.19895119 350.87097996 30.88895119 350.19097996 28.50895119 C349.53097996 28.17895119 348.87097996 27.84895119 348.19097996 27.50895119 C348.19097996 26.84895119 348.19097996 26.18895119 348.19097996 25.50895119 C347.06072611 25.51122951 347.06072611 25.51122951 345.90763885 25.51355386 C301.27419191 25.60301669 256.6407547 25.67167237 212.00723611 25.7132125 C206.65108482 25.71821548 201.29493371 25.72339276 195.93878269 25.72867775 C194.87244477 25.72972699 193.80610685 25.73077623 192.70745566 25.73185727 C175.42901333 25.74927459 158.15062409 25.78081958 140.87221328 25.81756237 C123.15020798 25.85493488 105.42823053 25.87717922 87.70618743 25.88530517 C76.76588951 25.8908006 65.82574165 25.90817326 54.8854899 25.94061705 C47.38893363 25.9617194 39.89245522 25.96816096 32.39587138 25.9629567 C28.06715436 25.96038823 23.73870003 25.96439563 19.41002941 25.98577309 C15.4491059 26.00519205 11.48862253 26.00625181 7.52767905 25.99254677 C6.09286665 25.99085213 4.65802716 25.995966 3.22326837 26.00848392 C1.27611661 26.02448797 -0.67120137 26.01351375 -2.61837959 26.0011425 C-4.24225359 26.00342082 -4.24225359 26.00342082 -5.89893311 26.00574517 C-9.52594913 25.38656101 -11.184053 24.03664182 -13.80902004 21.50895119 C-16.48249789 16.79853784 -16.39259578 12.01832688 -15.18402004 6.82145119 C-11.68929842 0.94396483 -6.37620645 -0.07889814 0 0 Z "
        fill="#6A8199" transform="translate(30.809020042419434,458.4910488128662)" />
    <path
        d="M0 0 C1.27293915 0.00917702 1.27293915 0.00917702 2.57159424 0.01853943 C5.26251544 0.04531854 7.95049663 0.11439973 10.640625 0.18359375 C12.46221004 0.20513659 14.28382829 0.22404274 16.10546875 0.24023438 C32.14252273 0.44278219 32.14252273 0.44278219 36.0546875 4.375 C40.30415859 9.51667606 39.54742915 15.20354897 39.265625 21.55859375 C39.22501953 23.29979492 39.22501953 23.29979492 39.18359375 25.07617188 C39.11321734 27.9264165 39.01481124 30.77277094 38.890625 33.62109375 C39.9261853 33.58181763 39.9261853 33.58181763 40.98266602 33.54174805 C44.13925013 33.43720787 47.29546917 33.37258793 50.453125 33.30859375 C52.08217773 33.24575195 52.08217773 33.24575195 53.74414062 33.18164062 C60.85901824 33.07351179 64.63320184 33.70285919 69.890625 38.62109375 C71.58726682 42.01437739 71.09722584 45.87469269 71.12890625 49.609375 C71.136978 50.50472458 71.14504974 51.40007416 71.15336609 52.32255554 C71.1672093 54.21981874 71.17793039 56.11710688 71.18579102 58.0144043 C71.20299546 60.91177769 71.24687777 63.80800754 71.29101562 66.70507812 C71.30114332 68.54816869 71.30965918 70.39126896 71.31640625 72.234375 C71.33391434 73.09911942 71.35142242 73.96386383 71.36946106 74.85481262 C71.35502159 78.87249 71.21968518 81.07253954 69.11401367 84.58276367 C65.17427944 88.19458327 62.57618508 88.87306779 57.25 88.81640625 C56.18007813 88.80996094 55.11015625 88.80351562 54.0078125 88.796875 C52.34105469 88.77173828 52.34105469 88.77173828 50.640625 88.74609375 C48.95066406 88.73255859 48.95066406 88.73255859 47.2265625 88.71875 C44.44770135 88.69520033 41.6692711 88.66231055 38.890625 88.62109375 C38.9220459 89.66450928 38.9220459 89.66450928 38.95410156 90.72900391 C39.0375948 93.90121833 39.08939029 97.07320106 39.140625 100.24609375 C39.17414063 101.34050781 39.20765625 102.43492187 39.2421875 103.5625 C39.31859106 109.86579346 39.28402862 113.90464574 34.890625 118.62109375 C32.640625 119.49609375 32.640625 119.49609375 30.890625 119.62109375 C30.890625 120.28109375 30.890625 120.94109375 30.890625 121.62109375 C25.28564478 121.74488706 19.68146378 121.83552393 14.07543945 121.89575195 C12.16937393 121.92086374 10.26340441 121.9549602 8.35766602 121.99829102 C5.61450502 122.05909119 2.87261914 122.0873362 0.12890625 122.109375 C-1.14481087 122.14808464 -1.14481087 122.14808464 -2.44425964 122.18757629 C-6.7412297 122.18960361 -8.52550934 122.08184302 -11.99926758 119.34057617 C-12.69560303 118.44314697 -13.39193848 117.54571777 -14.109375 116.62109375 C-14.70145752 115.96979492 -15.29354004 115.31849609 -15.90356445 114.64746094 C-17.4668937 112.02028281 -17.45306361 110.24241022 -17.40234375 107.19921875 C-17.39267578 106.17441406 -17.38300781 105.14960938 -17.37304688 104.09375 C-17.34791016 103.03027344 -17.32277344 101.96679688 -17.296875 100.87109375 C-17.28333984 99.79214844 -17.26980469 98.71320313 -17.25585938 97.6015625 C-17.22054084 94.94089955 -17.17121699 92.28125079 -17.109375 89.62109375 C-18.16064575 89.65251465 -18.16064575 89.65251465 -19.2331543 89.68457031 C-22.42091419 89.76792423 -25.60844452 89.81981514 -28.796875 89.87109375 C-29.89966797 89.90460938 -31.00246094 89.938125 -32.13867188 89.97265625 C-40.32305031 90.07156113 -40.32305031 90.07156113 -44.19140625 87.85546875 C-44.82433594 87.118125 -45.45726562 86.38078125 -46.109375 85.62109375 C-46.89671021 84.84499756 -46.89671021 84.84499756 -47.69995117 84.05322266 C-49.86361254 80.31956691 -49.57712794 76.71677722 -49.578125 72.47265625 C-49.58573853 71.58250824 -49.59335205 70.69236023 -49.60119629 69.77523804 C-49.61198984 67.89413249 -49.61485341 66.01296706 -49.61035156 64.13183594 C-49.6093806 61.26264716 -49.65098005 58.39614555 -49.6953125 55.52734375 C-49.70052087 53.69662014 -49.70320767 51.86588727 -49.703125 50.03515625 C-49.71952026 49.18184723 -49.73591553 48.32853821 -49.75280762 47.44937134 C-49.7047988 43.28335941 -49.42304084 40.44904922 -46.82226562 37.09521484 C-42.68858209 33.32534903 -39.91286699 33.49447943 -34.46875 33.5234375 C-33.39882812 33.52666016 -32.32890625 33.52988281 -31.2265625 33.53320312 C-30.11539063 33.54158203 -29.00421875 33.54996094 -27.859375 33.55859375 C-26.16941406 33.56536133 -26.16941406 33.56536133 -24.4453125 33.57226562 C-21.66661283 33.58403978 -18.88802091 33.60048535 -16.109375 33.62109375 C-16.16436157 32.44135986 -16.16436157 32.44135986 -16.22045898 31.23779297 C-16.36639964 27.65762843 -16.45714198 24.07808959 -16.546875 20.49609375 C-16.60552734 19.25859375 -16.66417969 18.02109375 -16.72460938 16.74609375 C-16.75844727 14.94785156 -16.75844727 14.94785156 -16.79296875 13.11328125 C-16.84795532 11.46368408 -16.84795532 11.46368408 -16.90405273 9.78076172 C-15.90579069 5.81163502 -14.40670087 4.23148237 -11.20729065 1.77075195 C-7.53508062 -0.24161989 -4.10525392 -0.14148192 0 0 Z "
        fill="#070504" transform="translate(239.109375,63.37890625)" />
    <path
        d="M0 0 C0.83106766 -0.0065712 1.66213531 -0.0131424 2.51838684 -0.01991272 C5.27552373 -0.03966371 8.03260612 -0.05131218 10.78979492 -0.0612793 C11.73052038 -0.06535482 12.67124584 -0.06943035 13.64047813 -0.07362938 C18.61936601 -0.09449761 23.59822627 -0.10879617 28.57714844 -0.11816406 C33.72219671 -0.1292313 38.86681282 -0.16363267 44.01170826 -0.20333576 C47.96568104 -0.2294696 51.91955035 -0.23785301 55.87360191 -0.24144554 C57.77022916 -0.24631972 59.66685153 -0.25795729 61.56339455 -0.27648354 C64.2183935 -0.30080687 66.87226771 -0.2999226 69.52734375 -0.29296875 C70.31038879 -0.30577881 71.09343384 -0.31858887 71.90020752 -0.33178711 C75.63424702 -0.29615149 77.74908574 0.04294431 80.92216492 2.08137512 C84.52303313 5.78842988 84.0945217 9.01763256 84.07128906 13.93139648 C84.0714096 14.74443678 84.07153013 15.55747707 84.07165432 16.39515495 C84.07090646 19.03340238 84.06328399 21.67157962 84.05541992 24.30981445 C84.05395011 25.93603481 84.05292964 27.56225564 84.05236816 29.18847656 C84.04711983 35.22632556 84.03315869 41.26416444 84.02026367 47.30200195 C83.99963867 60.79075195 83.97901367 74.27950195 83.95776367 88.17700195 C51.61776367 88.17700195 19.27776367 88.17700195 -14.04223633 88.17700195 C-14.12473633 74.75012695 -14.20723633 61.32325195 -14.29223633 47.48950195 C-14.32865234 43.25404541 -14.36506836 39.01858887 -14.40258789 34.65478516 C-14.4206543 29.47229004 -14.4206543 29.47229004 -14.42401123 27.04411316 C-14.43014307 25.35262339 -14.44418993 23.66115082 -14.46453857 21.96977234 C-14.49386215 19.4035314 -14.4978591 16.83835628 -14.49633789 14.27197266 C-14.51073032 13.52175748 -14.52512276 12.7715423 -14.53995132 11.99859333 C-14.51095176 8.33862398 -14.14614955 6.33769591 -12.13885498 3.23356628 C-8.38927761 -0.44437823 -4.99345049 0.01701509 0 0 Z "
        fill="#2DCCF7" transform="translate(215.042236328125,355.822998046875)" />
    <path
        d="M0 0 C8.58 0 17.16 0 26 0 C26.3125 10.625 26.3125 10.625 26.38793945 13.93994141 C26.58835416 19.25605113 26.80815838 23.53283093 30 28 C33.64588221 30.62729608 36.27314362 31.39233004 40.73828125 31.51171875 C41.70032471 31.54483154 42.66236816 31.57794434 43.65356445 31.61206055 C44.86101318 31.63695557 46.06846191 31.66185059 47.3125 31.6875 C51.169375 31.790625 55.02625 31.89375 59 32 C59 40.91 59 49.82 59 59 C46.1875 59.4375 46.1875 59.4375 42.15698242 59.56811523 C40.58460815 59.6252771 40.58460815 59.6252771 38.98046875 59.68359375 C37.37014771 59.73858032 37.37014771 59.73858032 35.72729492 59.79467773 C32.90688447 59.89541847 32.90688447 59.89541847 30 61 C30 61.66 30 62.32 30 63 C29.34 63 28.68 63 28 63 C27.05533244 66.24078125 26.80901172 69.27225655 26.68359375 72.640625 C26.64548584 73.60516602 26.60737793 74.56970703 26.56811523 75.56347656 C26.52501221 76.7800293 26.48190918 77.99658203 26.4375 79.25 C26.293125 83.1275 26.14875 87.005 26 91 C17.42 91 8.84 91 0 91 C-0.25 79.875 -0.25 79.875 -0.29785156 76.40185547 C-0.49935465 70.35358118 -0.89885662 66.56514136 -5 62 C-8.38805161 59.74129892 -9.77350741 59.70740587 -13.76171875 59.5859375 C-14.76936279 59.55032715 -15.77700684 59.5147168 -16.81518555 59.47802734 C-18.7319812 59.42702881 -18.7319812 59.42702881 -20.6875 59.375 C-24.750625 59.25125 -28.81375 59.1275 -33 59 C-33 50.09 -33 41.18 -33 32 C-21.875 31.6875 -21.875 31.6875 -18.40185547 31.61206055 C-10.76145554 31.34971881 -10.76145554 31.34971881 -4 28 C-1.4402483 24.42197683 -0.61048869 21.85549503 -0.48828125 17.48046875 C-0.43861206 16.09831177 -0.43861206 16.09831177 -0.38793945 14.68823242 C-0.36304443 13.53299072 -0.33814941 12.37774902 -0.3125 11.1875 C-0.209375 7.495625 -0.10625 3.80375 0 0 Z "
        fill="#F65B6D" transform="translate(237,79)" />
    <path
        d="M0 0 C1.42848646 -0.01148483 2.85693119 -0.03188134 4.28515625 -0.06152344 C14.30028669 -0.26922919 21.09131428 0.12923154 28.96850586 6.85766602 C30.96850586 9.29516602 30.96850586 9.29516602 30.96850586 12.29516602 C31.62850586 12.29516602 32.28850586 12.29516602 32.96850586 12.29516602 C35.23406543 16.82628515 34.32021129 22.95970648 34.37353516 27.99584961 C34.39498332 29.51463747 34.42892798 31.03330623 34.47607422 32.55151367 C34.80580319 43.27885278 33.94619135 50.80802401 26.41015625 58.98632812 C20.39654565 63.89052387 12.08801707 63.00910513 4.7409668 62.89208984 C2.3416686 62.85763964 -0.05396562 62.87149538 -2.45336914 62.89086914 C-3.99244717 62.88397279 -5.53151581 62.87430229 -7.07055664 62.86157227 C-8.13483383 62.86901207 -8.13483383 62.86901207 -9.22061157 62.87660217 C-15.01691286 62.74050321 -18.50414509 60.69369388 -22.64086914 56.76782227 C-28.56851054 49.43947109 -28.4041204 42.73159467 -28.40209961 33.68554688 C-28.40646099 31.49928163 -28.44278278 29.31505751 -28.48071289 27.12915039 C-28.54250261 19.66060463 -28.44089289 13.62740239 -24.03149414 7.29516602 C-21.99633789 5.23657227 -21.99633789 5.23657227 -19.96899414 3.85766602 C-19.29739258 3.38458008 -18.62579102 2.91149414 -17.93383789 2.42407227 C-12.50820694 -0.79565534 -6.10591767 0.03415021 0 0 Z "
        fill="#070707" transform="translate(78.031494140625,280.704833984375)" />
    <path
        d="M0 0 C1.56728317 -0.02145416 3.13445069 -0.05540605 4.70117188 -0.10253906 C14.41001954 -0.39166435 22.17186667 -0.39054225 29.87207031 6.4050293 C35.76811803 12.99713128 35.15412259 20.53740574 35.22216797 28.86376953 C35.23867131 30.34081846 35.26588735 31.81778939 35.30419922 33.29443359 C35.71426212 49.20665694 35.71426212 49.20665694 29.87207031 55.4050293 C23.27305409 62.1075296 17.28421475 62.69492438 8.20800781 62.77612305 C7.53608398 62.77596191 6.86416016 62.77580078 6.171875 62.77563477 C4.14138594 62.77998789 2.11311013 62.81628839 0.08300781 62.85424805 C-8.79336504 62.88061351 -15.20028075 62.37141229 -22.20043945 56.73681641 C-27.81450782 50.92563969 -28.03437679 44.58207703 -27.93847656 36.91870117 C-27.917771 36.16645264 -27.89706543 35.4142041 -27.87573242 34.63916016 C-27.81543441 32.34270899 -27.81417416 30.05177087 -27.82128906 27.75463867 C-27.76326871 19.03601509 -27.37972087 12.13223173 -21.27636719 5.34643555 C-20.69113281 4.89139648 -20.10589844 4.43635742 -19.50292969 3.9675293 C-18.91253906 3.49444336 -18.32214844 3.02135742 -17.71386719 2.53393555 C-12.75578887 -0.99533695 -5.88547158 0.06041701 0 0 Z "
        fill="#070909" transform="translate(200.1279296875,224.594970703125)" />
    <path
        d="M0 0 C2.01989469 -0.01183202 4.03666306 -0.06099862 6.0559082 -0.11157227 C14.17330372 -0.15588559 20.67500893 0.51451447 27.35473633 5.42553711 C34.00698295 12.45694239 33.60071525 19.79470352 33.64990234 28.88427734 C33.66138947 30.36126307 33.6817896 31.83820836 33.71142578 33.31494141 C34.01853121 48.62732079 34.01853121 48.62732079 29.35473633 55.42553711 C24.66319702 60.29268285 20.50194093 62.62765376 13.71914673 62.75473022 C12.99303192 62.75695587 12.26691711 62.75918152 11.51879883 62.76147461 C10.76182709 62.76813141 10.00485535 62.77478821 9.22494507 62.78164673 C7.62630638 62.7917531 6.02762568 62.79646437 4.42895508 62.79614258 C1.99464681 62.80051036 -0.4378391 62.83683255 -2.87182617 62.87475586 C-4.42911167 62.88062576 -5.98640574 62.88459399 -7.54370117 62.88647461 C-8.26576752 62.90084564 -8.98783386 62.91521667 -9.73178101 62.93002319 C-14.84946388 62.88420976 -17.68538574 61.60475969 -21.64526367 58.42553711 C-29.08069452 50.77766538 -29.11932713 42.06499269 -29.02026367 31.98803711 C-29.03186523 30.81176758 -29.0434668 29.63549805 -29.05541992 28.42358398 C-29.02943297 20.67514102 -28.77389607 13.3461455 -23.77807617 7.08569336 C-23.11549805 6.5584668 -22.45291992 6.03124023 -21.77026367 5.48803711 C-21.1128418 4.94276367 -20.45541992 4.39749023 -19.77807617 3.83569336 C-13.51794348 -0.3033321 -7.29245987 0.02017157 0 0 Z "
        fill="#070706" transform="translate(416.645263671875,280.574462890625)" />
    <path
        d="M0 0 C0.71162292 -0.00570007 1.42324585 -0.01140015 2.15643311 -0.01727295 C3.66270466 -0.02671265 5.16899677 -0.03325285 6.67529297 -0.03710938 C8.96228876 -0.04678159 11.24837255 -0.07779913 13.53515625 -0.109375 C15.00259886 -0.11590908 16.47004787 -0.12115796 17.9375 -0.125 C18.61379456 -0.1373468 19.29008911 -0.1496936 19.98687744 -0.16241455 C25.62581014 -0.13639811 30.34866102 1.11743996 34.66015625 4.88671875 C35.34658203 5.75490234 35.34658203 5.75490234 36.046875 6.640625 C36.51738281 7.21683594 36.98789062 7.79304687 37.47265625 8.38671875 C41.61408076 14.34883143 41.07179357 20.29536742 41.05004883 27.31005859 C41.04690555 29.43249683 41.07030303 31.55351685 41.09570312 33.67578125 C41.17100796 48.99709661 41.17100796 48.99709661 35.90234375 55.4453125 C35.24878906 55.98414063 34.59523438 56.52296875 33.921875 57.078125 C32.95314453 57.90957031 32.95314453 57.90957031 31.96484375 58.7578125 C25.14404109 63.17759706 17.6729686 62.53578391 9.859375 62.515625 C7.99732422 62.53979492 7.99732422 62.53979492 6.09765625 62.56445312 C-1.67437102 62.56859158 -8.28876119 62.51486873 -14.5078125 57.3359375 C-15.04664063 56.67335938 -15.58546875 56.01078125 -16.140625 55.328125 C-16.69492187 54.67070312 -17.24921875 54.01328125 -17.8203125 53.3359375 C-22.33352133 46.67590501 -21.59735019 39.71241365 -21.578125 31.953125 C-21.60229492 30.02533203 -21.60229492 30.02533203 -21.62695312 28.05859375 C-21.63110194 19.96841402 -21.63313052 12.33103499 -16.328125 5.828125 C-15.3071875 5.02375 -15.3071875 5.02375 -14.265625 4.203125 C-13.585 3.64625 -12.904375 3.089375 -12.203125 2.515625 C-8.32240421 -0.11325037 -4.50634775 0.02798315 0 0 Z "
        fill="#07090A" transform="translate(286.265625,224.796875)" />
    <path
        d="M0 0 C13.5866729 -0.04518464 27.1732959 -0.0818781 40.76002693 -0.10362434 C47.0688875 -0.11406143 53.37769399 -0.12821942 59.68652344 -0.15087891 C65.77489631 -0.17260972 71.86321716 -0.18456919 77.95162582 -0.18975449 C80.27444146 -0.19344979 82.59725426 -0.20066575 84.92004776 -0.21146011 C88.17348635 -0.225978 91.42671001 -0.22797779 94.68017578 -0.22705078 C96.12055962 -0.23783661 96.12055962 -0.23783661 97.59004211 -0.24884033 C102.41843788 -0.23395378 106.53429416 -0.0766005 111 2 C112.75 4.5625 112.75 4.5625 114 7 C114.99 7.495 114.99 7.495 116 8 C116.86010847 17.67144186 116.86010847 17.67144186 113.8125 21.5 C108.15240561 26.53119502 102.94466144 26.28056426 95.7019043 26.22705078 C94.14999138 26.22748886 94.14999138 26.22748886 92.56672668 26.22793579 C89.15247159 26.22654424 85.73843565 26.21099104 82.32421875 26.1953125 C79.95481994 26.19158175 77.58541958 26.18873507 75.21601868 26.18673706 C68.98367036 26.17910548 62.75141545 26.15946096 56.519104 26.1373291 C50.15793115 26.11686051 43.79674318 26.10773317 37.43554688 26.09765625 C24.95698364 26.07621471 12.4785142 26.04103632 0 26 C0 17.42 0 8.84 0 0 Z "
        fill="#F4334C" transform="translate(369,160)" />
    <path
        d="M0 0 C1.03475464 -0.00058411 2.06950928 -0.00116821 3.13562012 -0.00177002 C6.54469732 0.00100942 9.95289255 0.03209604 13.36181641 0.06347656 C15.72978233 0.07093942 18.09775444 0.07663214 20.46572876 0.08062744 C26.68997327 0.09588009 32.91384281 0.13515936 39.13793945 0.17944336 C45.49246143 0.22040365 51.84704414 0.23864012 58.20166016 0.25878906 C70.66409076 0.30165354 83.12614495 0.372001 95.58837891 0.45410156 C95.58837891 9.03410156 95.58837891 17.61410156 95.58837891 26.45410156 C81.59329785 26.56701275 67.59851876 26.65876661 53.60308552 26.71316242 C47.10460313 26.73926822 40.60644821 26.77468548 34.1081543 26.83129883 C27.83821069 26.88558162 21.56858229 26.91551469 15.29842186 26.92848778 C12.90496037 26.93773421 10.51151635 26.95579019 8.11818886 26.98275185 C4.76843462 27.01899093 1.41998673 27.02404884 -1.92993164 27.02172852 C-2.92183502 27.0397049 -3.9137384 27.05768127 -4.93569946 27.07620239 C-9.56273623 27.04146774 -11.69127715 27.01228369 -15.44172668 24.10612488 C-19.34570365 18.85029092 -20.12631745 15.88636876 -19.41162109 9.45410156 C-15.81253963 0.4563979 -8.53904067 -0.12665015 0 0 Z "
        fill="#F4334C" transform="translate(34.41162109375,159.5458984375)" />
    <path
        d="M0 0 C1.20140625 -0.01611328 2.4028125 -0.03222656 3.640625 -0.04882812 C4.79046875 -0.04947266 5.9403125 -0.05011719 7.125 -0.05078125 C8.17945313 -0.05376221 9.23390625 -0.05674316 10.3203125 -0.05981445 C13 0.3125 13 0.3125 14.84667969 1.42260742 C16.57751379 4.2588451 16.35397507 6.61461247 16.328125 9.9140625 C16.32296875 11.20828125 16.3178125 12.5025 16.3125 13.8359375 C16.3021875 14.50850586 16.291875 15.18107422 16.28125 15.87402344 C16.25000708 17.93703225 16.24026992 19.99927773 16.234375 22.0625 C16.15376635 32.15873365 16.15376635 32.15873365 15 33.3125 C10.8847102 33.55416663 6.76608735 33.54099275 2.64428711 33.55273438 C0.57429901 33.56244465 -1.49469815 33.59345712 -3.56445312 33.625 C-4.86189453 33.63015625 -6.15933594 33.6353125 -7.49609375 33.640625 C-9.29324829 33.65464355 -9.29324829 33.65464355 -11.12670898 33.66894531 C-12.07489502 33.55131836 -13.02308105 33.43369141 -14 33.3125 C-17.38724722 28.23162917 -16.32727187 22.21488092 -16.3125 16.25 C-16.32861328 14.94482422 -16.34472656 13.63964844 -16.36132812 12.29492188 C-16.36197266 11.05162109 -16.36261719 9.80832031 -16.36328125 8.52734375 C-16.36626221 7.38386475 -16.36924316 6.24038574 -16.37231445 5.06225586 C-16.24945068 4.15483643 -16.12658691 3.24741699 -16 2.3125 C-11.12873683 -0.93500878 -5.72409973 -0.01535434 0 0 Z "
        fill="#2EC6F0" transform="translate(204,238.6875)" />
    <path
        d="M0 0 C1.87945312 0.00483398 1.87945312 0.00483398 3.796875 0.00976562 C5.04210937 -0.00634766 6.28734375 -0.02246094 7.5703125 -0.0390625 C8.7665625 -0.03970703 9.9628125 -0.04035156 11.1953125 -0.04101562 C12.29278809 -0.04399658 13.39026367 -0.04697754 14.52099609 -0.05004883 C17.83477109 0.37525894 19.20925405 0.81517691 21.421875 3.32226562 C21.92358398 6.10961914 21.92358398 6.10961914 21.91796875 9.45117188 C21.91861328 10.65064453 21.91925781 11.85011719 21.91992188 13.0859375 C21.89994141 14.33955078 21.87996094 15.59316406 21.859375 16.88476562 C21.86646484 18.14224609 21.87355469 19.39972656 21.88085938 20.6953125 C21.83242399 27.62157267 21.83242399 27.62157267 21.421875 30.32226562 C17.8658631 32.69294023 16.29101319 32.57957992 12.07421875 32.58789062 C10.82962891 32.59046875 9.58503906 32.59304688 8.30273438 32.59570312 C7.00142578 32.58796875 5.70011719 32.58023438 4.359375 32.57226562 C3.05419922 32.58 1.74902344 32.58773437 0.40429688 32.59570312 C-0.83900391 32.593125 -2.08230469 32.59054687 -3.36328125 32.58789062 C-5.07849976 32.58450684 -5.07849976 32.58450684 -6.82836914 32.58105469 C-9.578125 32.32226562 -9.578125 32.32226562 -11.578125 30.32226562 C-11.83691406 27.55664062 -11.83691406 27.55664062 -11.84375 24.07226562 C-11.84632813 22.82445312 -11.84890625 21.57664062 -11.8515625 20.29101562 C-11.84382813 18.98132813 -11.83609375 17.67164063 -11.828125 16.32226562 C-11.83585937 15.01257813 -11.84359375 13.70289063 -11.8515625 12.35351562 C-11.84898437 11.10570312 -11.84640625 9.85789062 -11.84375 8.57226562 C-11.84149414 7.42242187 -11.83923828 6.27257812 -11.83691406 5.08789062 C-11.21313344 -1.57832342 -5.26636224 0.03127969 0 0 Z "
        fill="#02B3FB" transform="translate(414.578125,295.677734375)" />
    <path
        d="M0 0 C0.67877197 0.00008057 1.35754395 0.00016113 2.05688477 0.00024414 C4.12667451 -0.00194046 6.1959298 -0.02008804 8.265625 -0.0390625 C10.21178711 -0.04196289 10.21178711 -0.04196289 12.19726562 -0.04492188 C13.39536865 -0.04903076 14.59347168 -0.05313965 15.82788086 -0.05737305 C18.70117188 0.18554688 18.70117188 0.18554688 20.70117188 2.18554688 C20.9440918 5.05883789 20.9440918 5.05883789 20.93164062 8.68945312 C20.92970703 9.98689453 20.92777344 11.28433594 20.92578125 12.62109375 C20.91647583 13.63610962 20.91647583 13.63610962 20.90698242 14.67163086 C20.8887124 16.74345158 20.88647283 18.81482584 20.88671875 20.88671875 C20.84125445 31.0454643 20.84125445 31.0454643 19.70117188 32.18554688 C15.58539598 32.40343874 11.46652265 32.37133876 7.34545898 32.37084961 C5.27566924 32.37303421 3.20641395 32.39118179 1.13671875 32.41015625 C-0.16072266 32.41208984 -1.45816406 32.41402344 -2.79492188 32.41601562 C-3.9930249 32.42012451 -5.19112793 32.4242334 -6.42553711 32.4284668 C-9.29882812 32.18554688 -9.29882812 32.18554688 -11.29882812 30.18554688 C-11.54174805 27.31225586 -11.54174805 27.31225586 -11.52929688 23.68164062 C-11.52736328 22.38419922 -11.52542969 21.08675781 -11.5234375 19.75 C-11.51723389 19.07332275 -11.51103027 18.39664551 -11.50463867 17.69946289 C-11.48636865 15.62764217 -11.48412908 13.55626791 -11.484375 11.484375 C-11.43323563 0.05756723 -11.42680777 0.05113937 0 0 Z "
        fill="#2DCDF9" transform="translate(291.298828125,239.814453125)" />
    <path
        d="M0 0 C1.79727539 -0.00386719 1.79727539 -0.00386719 3.63085938 -0.0078125 C4.88833984 -0.00007813 6.14582031 0.00765625 7.44140625 0.015625 C9.32182617 0.00402344 9.32182617 0.00402344 11.24023438 -0.0078125 C12.43970703 -0.00523437 13.63917969 -0.00265625 14.875 0 C15.9777124 0.00225586 17.0804248 0.00451172 18.21655273 0.00683594 C21.00390625 0.265625 21.00390625 0.265625 24.00390625 2.265625 C24.3762207 5.03125 24.3762207 5.03125 24.3671875 8.515625 C24.36654297 9.7634375 24.36589844 11.01125 24.36523438 12.296875 C24.34912109 13.6065625 24.33300781 14.91625 24.31640625 16.265625 C24.31962891 17.5753125 24.32285156 18.885 24.32617188 20.234375 C24.27069196 29.99883929 24.27069196 29.99883929 22.00390625 32.265625 C19.13061523 32.50854492 19.13061523 32.50854492 15.5 32.49609375 C14.20255859 32.49416016 12.90511719 32.49222656 11.56835938 32.49023438 C10.89168213 32.48403076 10.21500488 32.47782715 9.51782227 32.47143555 C7.44600154 32.45316552 5.37462728 32.45092595 3.30273438 32.45117188 C-6.85601118 32.40570757 -6.85601118 32.40570757 -7.99609375 31.265625 C-8.21398561 27.14984911 -8.18188563 23.03097577 -8.18139648 18.90991211 C-8.18358109 16.84012236 -8.20172866 14.77086707 -8.22070312 12.70117188 C-8.22263672 11.40373047 -8.22457031 10.10628906 -8.2265625 8.76953125 C-8.23067139 7.57142822 -8.23478027 6.3733252 -8.23901367 5.13891602 C-7.77117263 -0.39477362 -4.78850797 0.00980606 0 0 Z "
        fill="#01B4FC" transform="translate(72.99609375,295.734375)" />
    <path
        d="M0 0 C1.03475464 -0.00058411 2.06950928 -0.00116821 3.13562012 -0.00177002 C6.54469732 0.00100942 9.95289255 0.03209604 13.36181641 0.06347656 C15.72978233 0.07093942 18.09775444 0.07663214 20.46572876 0.08062744 C26.68997327 0.09588009 32.91384281 0.13515936 39.13793945 0.17944336 C45.49246143 0.22040365 51.84704414 0.23864012 58.20166016 0.25878906 C70.66409076 0.30165354 83.12614495 0.372001 95.58837891 0.45410156 C95.58837891 9.03410156 95.58837891 17.61410156 95.58837891 26.45410156 C81.59329785 26.56701275 67.59851876 26.65876661 53.60308552 26.71316242 C47.10460313 26.73926822 40.60644821 26.77468548 34.1081543 26.83129883 C27.83821069 26.88558162 21.56858229 26.91551469 15.29842186 26.92848778 C12.90496037 26.93773421 10.51151635 26.95579019 8.11818886 26.98275185 C4.76843462 27.01899093 1.41998673 27.02404884 -1.92993164 27.02172852 C-2.92183502 27.0397049 -3.9137384 27.05768127 -4.93569946 27.07620239 C-9.56273623 27.04146774 -11.69127715 27.01228369 -15.44172668 24.10612488 C-19.34570365 18.85029092 -20.12631745 15.88636876 -19.41162109 9.45410156 C-15.81253963 0.4563979 -8.53904067 -0.12665015 0 0 Z M-17.41162109 9.45410156 C-18.12167608 12.02912006 -18.12167608 12.02912006 -17.78662109 14.39160156 C-17.73248047 15.16375 -17.67833984 15.93589844 -17.62255859 16.73144531 C-17.55294922 17.29992187 -17.48333984 17.86839844 -17.41162109 18.45410156 C-16.09162109 18.45410156 -14.77162109 18.45410156 -13.41162109 18.45410156 C-13.74162109 20.10410156 -14.07162109 21.75410156 -14.41162109 23.45410156 C-7.86413587 25.12522645 -1.95107244 25.73484646 4.78979492 25.68115234 C5.76646622 25.6814444 6.74313751 25.68173645 7.74940491 25.68203735 C10.94712505 25.68065458 14.1446062 25.66514325 17.34228516 25.64941406 C19.57144544 25.64568019 21.80060738 25.64283498 24.0297699 25.64083862 C29.87408035 25.63323167 35.71829013 25.61360854 41.56256104 25.59143066 C47.53534585 25.57090877 53.50814706 25.56182337 59.48095703 25.55175781 C71.18348215 25.53035976 82.88590638 25.4952017 94.58837891 25.45410156 C94.58837891 17.86410156 94.58837891 10.27410156 94.58837891 2.45410156 C80.87135276 2.29595919 67.15493196 2.16753365 53.43720055 2.09141636 C47.06748972 2.05488387 40.69843485 2.00533076 34.32910156 1.92602539 C28.18231384 1.84996989 22.03615702 1.8081114 15.88893509 1.78996086 C13.54369803 1.77702622 11.19849554 1.75176734 8.85352707 1.71399117 C5.56825906 1.6631719 2.2855978 1.65617814 -1 1.65942383 C-1.96960663 1.6342569 -2.93921326 1.60908997 -3.9382019 1.5831604 C-10.70482994 1.65549614 -14.01814515 3.49564517 -17.41162109 9.45410156 Z "
        fill="#BC2F43" transform="translate(34.41162109375,159.5458984375)" />
    <path
        d="M0 0 C13.5866729 -0.04518464 27.1732959 -0.0818781 40.76002693 -0.10362434 C47.0688875 -0.11406143 53.37769399 -0.12821942 59.68652344 -0.15087891 C65.77489631 -0.17260972 71.86321716 -0.18456919 77.95162582 -0.18975449 C80.27444146 -0.19344979 82.59725426 -0.20066575 84.92004776 -0.21146011 C88.17348635 -0.225978 91.42671001 -0.22797779 94.68017578 -0.22705078 C96.12055962 -0.23783661 96.12055962 -0.23783661 97.59004211 -0.24884033 C102.39237769 -0.23403413 106.58636697 -0.14210269 111 2 C111.495 3.485 111.495 3.485 112 5 C110.8314296 4.51486435 110.8314296 4.51486435 109.63925171 4.01992798 C104.9462175 2.70466944 100.62261299 2.69217162 95.77197266 2.68115234 C94.75672516 2.67110672 93.74147766 2.6610611 92.69546509 2.65071106 C89.35166979 2.61990846 86.00795447 2.60285185 82.6640625 2.5859375 C80.34092523 2.56722353 78.01779473 2.54764994 75.69467163 2.5272522 C69.58900959 2.47594938 63.48332553 2.4363136 57.37756348 2.39910889 C51.14358071 2.35905776 44.90968945 2.30797044 38.67578125 2.2578125 C26.45057876 2.16107499 14.22533843 2.07768335 2 2 C2 9.59 2 17.18 2 25 C36.32 25 70.64 25 106 25 C106 25.33 106 25.66 106 26 C71.02 26 36.04 26 0 26 C0 17.42 0 8.84 0 0 Z "
        fill="#B42C3F" transform="translate(369,160)" />
    <path
        d="M0 0 C1.20591797 -0.00128906 2.41183594 -0.00257812 3.65429688 -0.00390625 C4.92466797 -0.00003906 6.19503906 0.00382812 7.50390625 0.0078125 C8.77041016 0.00394531 10.03691406 0.00007813 11.34179688 -0.00390625 C12.54900391 -0.00261719 13.75621094 -0.00132813 15 0 C16.11431396 0.00112793 17.22862793 0.00225586 18.37670898 0.00341797 C21.06640625 0.1328125 21.06640625 0.1328125 23.06640625 1.1328125 C23.06640625 9.7128125 23.06640625 18.2928125 23.06640625 27.1328125 C20.86448401 23.82992914 20.82680657 22.85818523 20.87109375 19.02734375 C20.87608887 18.14151611 20.88108398 17.25568848 20.88623047 16.34301758 C20.91354248 14.66115356 20.91354248 14.66115356 20.94140625 12.9453125 C21.00328125 7.593125 21.00328125 7.593125 21.06640625 2.1328125 C12.48640625 2.1328125 3.90640625 2.1328125 -4.93359375 2.1328125 C-4.85449372 9.61220551 -4.85449372 9.61220551 -4.75341797 17.09130859 C-4.74842285 18.02023926 -4.74342773 18.94916992 -4.73828125 19.90625 C-4.72780762 20.85935059 -4.71733398 21.81245117 -4.70654297 22.79443359 C-4.93359375 25.1328125 -4.93359375 25.1328125 -6.93359375 27.1328125 C-6.96245912 22.82032641 -6.9803463 18.50786488 -6.99609375 14.1953125 C-7.00447266 12.96361328 -7.01285156 11.73191406 -7.02148438 10.46289062 C-7.02470703 9.29306641 -7.02792969 8.12324219 -7.03125 6.91796875 C-7.03648682 5.83394775 -7.04172363 4.74992676 -7.04711914 3.63305664 C-6.83159641 -1.11354173 -4.14187511 0.00419673 0 0 Z "
        fill="#3A0E12" transform="translate(241.93359375,76.8671875)" />
    <path
        d="M0 0 C1.87945312 0.00483398 1.87945312 0.00483398 3.796875 0.00976562 C5.04210937 -0.00634766 6.28734375 -0.02246094 7.5703125 -0.0390625 C8.7665625 -0.03970703 9.9628125 -0.04035156 11.1953125 -0.04101562 C12.29278809 -0.04399658 13.39026367 -0.04697754 14.52099609 -0.05004883 C17.83543266 0.37534385 19.21578863 0.80657621 21.421875 3.32226562 C21.87597656 6.14135742 21.87597656 6.14135742 21.8125 9.52148438 C21.79960937 10.72998047 21.78671875 11.93847656 21.7734375 13.18359375 C21.73992187 14.44623047 21.70640625 15.70886719 21.671875 17.00976562 C21.65382813 18.28400391 21.63578125 19.55824219 21.6171875 20.87109375 C21.56997941 24.02223404 21.50413884 27.17187703 21.421875 30.32226562 C20.761875 30.32226562 20.101875 30.32226562 19.421875 30.32226562 C19.421875 21.41226562 19.421875 12.50226563 19.421875 3.32226562 C9.521875 3.32226562 -0.378125 3.32226562 -10.578125 3.32226562 C-10.578125 12.23226563 -10.578125 21.14226562 -10.578125 30.32226562 C-10.908125 30.32226562 -11.238125 30.32226562 -11.578125 30.32226562 C-11.62752162 26.37129585 -11.66384255 22.42044533 -11.68798828 18.46923828 C-11.70300607 16.46315202 -11.72841481 14.45715238 -11.75390625 12.45117188 C-11.76357422 10.56591797 -11.76357422 10.56591797 -11.7734375 8.64257812 C-11.78391113 7.48000488 -11.79438477 6.31743164 -11.80517578 5.11962891 C-11.2608788 -1.58634403 -5.27158631 0.03131072 0 0 Z "
        fill="#0E87B6" transform="translate(414.578125,295.677734375)" />
    <path
        d="M0 0 C0.67877197 0.00008057 1.35754395 0.00016113 2.05688477 0.00024414 C4.12667451 -0.00194046 6.1959298 -0.02008804 8.265625 -0.0390625 C10.21178711 -0.04196289 10.21178711 -0.04196289 12.19726562 -0.04492188 C13.39536865 -0.04903076 14.59347168 -0.05313965 15.82788086 -0.05737305 C18.70117188 0.18554688 18.70117188 0.18554688 20.70117188 2.18554688 C20.9440918 5.05883789 20.9440918 5.05883789 20.93164062 8.68945312 C20.92970703 9.98689453 20.92777344 11.28433594 20.92578125 12.62109375 C20.91647583 13.63610962 20.91647583 13.63610962 20.90698242 14.67163086 C20.8887124 16.74345158 20.88647283 18.81482584 20.88671875 20.88671875 C20.84125445 31.0454643 20.84125445 31.0454643 19.70117188 32.18554688 C17.55558361 32.27330293 15.40712766 32.29249906 13.25976562 32.28320312 C11.95458984 32.27998047 10.64941406 32.27675781 9.3046875 32.2734375 C7.91601498 32.26508089 6.5273431 32.25661593 5.13867188 32.24804688 C3.74609532 32.24303353 2.35351706 32.23847034 0.9609375 32.234375 C-2.45902683 32.22254121 -5.87890657 32.20605568 -9.29882812 32.18554688 C-9.29882812 31.85554688 -9.29882812 31.52554687 -9.29882812 31.18554688 C-0.05882812 30.85554688 9.18117188 30.52554687 18.70117188 30.18554688 C18.76304687 24.12179687 18.76304687 24.12179687 18.82617188 17.93554688 C18.85348389 16.03240723 18.85348389 16.03240723 18.88134766 14.09082031 C18.88634277 13.08567383 18.89133789 12.08052734 18.89648438 11.04492188 C18.90695801 10.01850586 18.91743164 8.99208984 18.92822266 7.93457031 C18.84541721 4.85391582 18.84541721 4.85391582 16.70117188 1.18554688 C3.33617187 1.68054688 3.33617187 1.68054688 -10.29882812 2.18554688 C-10.29882812 11.42554688 -10.29882812 20.66554688 -10.29882812 30.18554688 C-10.62882812 30.18554688 -10.95882813 30.18554688 -11.29882812 30.18554688 C-11.32348558 26.07382128 -11.34166771 21.9621241 -11.35375977 17.8503418 C-11.35879892 16.45059459 -11.36563029 15.05085267 -11.37426758 13.65112305 C-11.38635132 11.64308911 -11.39152619 9.6350173 -11.39648438 7.62695312 C-11.40172119 6.41724854 -11.40695801 5.20754395 -11.41235352 3.96118164 C-11.16325809 -2.12906766 -4.85081586 0.02170927 0 0 Z "
        fill="#32A4C4" transform="translate(291.298828125,239.814453125)" />
    <path
        d="M0 0 C0.66 0 1.32 0 2 0 C4.28128029 4.56256058 3.18502621 10.92807179 3.1875 15.9375 C3.19974609 17.23880859 3.21199219 18.54011719 3.22460938 19.88085938 C3.22654297 21.12544922 3.22847656 22.37003906 3.23046875 23.65234375 C3.23457764 24.79695068 3.23868652 25.94155762 3.24291992 27.12084961 C3 30 3 30 1 33 C-1.88916016 33.34057617 -1.88916016 33.34057617 -5.5390625 33.29296875 C-7.49199219 33.2784668 -7.49199219 33.2784668 -9.484375 33.26367188 C-10.86458923 33.23860388 -12.24479756 33.21320902 -13.625 33.1875 C-15.01300663 33.17245517 -16.40102867 33.15876641 -17.7890625 33.14648438 C-21.19309509 33.1110257 -24.59635622 33.06160298 -28 33 C-28.33 32.34 -28.66 31.68 -29 31 C-28.15703369 30.97494385 -27.31406738 30.9498877 -26.44555664 30.92407227 C-23.32758326 30.82911845 -20.20978497 30.72987552 -17.09204102 30.62768555 C-15.74085853 30.58428777 -14.38961947 30.5426163 -13.03833008 30.50268555 C-11.09963299 30.44510048 -9.16113724 30.38085702 -7.22265625 30.31640625 C-6.05484619 30.27974854 -4.88703613 30.24309082 -3.68383789 30.20532227 C-1.08220205 30.29923812 -1.08220205 30.29923812 0 29 C0.08775605 26.85441173 0.10695219 24.70595579 0.09765625 22.55859375 C0.09282227 20.60083008 0.09282227 20.60083008 0.08789062 18.60351562 C0.07953401 17.2148431 0.07106905 15.82617123 0.0625 14.4375 C0.05748666 13.04492344 0.05292347 11.65234519 0.04882812 10.25976562 C0.03699434 6.8398013 0.0205088 3.41992156 0 0 Z "
        fill="#012639" transform="translate(96,297)" />
    <path
        d="M0 0 C0.99 0.495 0.99 0.495 2 1 C-0.91916359 3.51384228 -2.65513494 4.3729781 -6.50518799 4.32279968 C-7.85128647 4.31636444 -7.85128647 4.31636444 -9.22457886 4.30979919 C-10.20137604 4.28966263 -11.17817322 4.26952606 -12.18457031 4.2487793 C-13.2190329 4.23946381 -14.25349548 4.23014832 -15.31930542 4.22055054 C-18.73924445 4.1861703 -22.15847824 4.13027644 -25.578125 4.07421875 C-27.94893898 4.04618715 -30.31976917 4.01949658 -32.69061279 3.99409485 C-38.9313787 3.92361979 -45.17175788 3.83490377 -51.41223145 3.74243164 C-57.77989614 3.6512885 -64.14775769 3.57733678 -70.515625 3.50195312 C-83.01067003 3.35149345 -95.50537398 3.18176933 -108 3 C-108 2.67 -108 2.34 -108 2 C-106.69121384 1.98969254 -105.38242767 1.97938507 -104.03398132 1.96876526 C-91.71745444 1.87113262 -79.40097923 1.7684082 -67.08453655 1.66066074 C-60.75209498 1.60542757 -54.4196488 1.55200687 -48.0871582 1.50268555 C-41.97931132 1.45504792 -35.87152144 1.40270521 -29.76374245 1.34705925 C-27.4300967 1.32663299 -25.09643533 1.30792037 -22.76276207 1.29092598 C-19.50153308 1.26688809 -16.24041217 1.23683249 -12.97924805 1.20532227 C-11.52268547 1.19668907 -11.52268547 1.19668907 -10.03669739 1.18788147 C-9.14908722 1.17809265 -8.26147705 1.16830383 -7.3469696 1.15821838 C-6.18965851 1.14853956 -6.18965851 1.14853956 -5.0089674 1.1386652 C-2.79260613 1.06984177 -2.79260613 1.06984177 0 0 Z "
        fill="#58111C" transform="translate(478,184)" />
    <path
        d="M0 0 C0.83121368 -0.00686325 1.66242737 -0.0137265 2.51882935 -0.02079773 C5.27070122 -0.03912114 8.02200589 -0.03521987 10.77392578 -0.02954102 C12.68580308 -0.03410072 14.59767874 -0.03940566 16.509552 -0.04542542 C20.51945649 -0.05436782 24.52916196 -0.05192122 28.5390625 -0.04199219 C33.67629957 -0.03051108 38.81284841 -0.05069508 43.94999504 -0.07990932 C47.89971275 -0.09826358 51.84926539 -0.09798024 55.79901505 -0.0922718 C57.69283131 -0.09211844 59.58665866 -0.09817518 61.48043442 -0.11056328 C64.13062297 -0.12545395 66.77953858 -0.1148102 69.4296875 -0.09765625 C70.2111615 -0.10732422 70.9926355 -0.11699219 71.79779053 -0.12695312 C76.76916892 -0.05962699 79.31925499 0.88879643 82.84423828 4.40405273 C82.18423828 5.72405273 81.52423828 7.04405273 80.84423828 8.40405273 C80.84423828 7.08405273 80.84423828 5.76405273 80.84423828 4.40405273 C80.06048828 4.25967773 79.27673828 4.11530273 78.46923828 3.96655273 C75.84423828 3.40405273 75.84423828 3.40405273 73.84423828 2.40405273 C71.40938646 2.30604105 69.00319569 2.26772714 66.56811523 2.2746582 C65.81828873 2.27290588 65.06846222 2.27115356 64.2959137 2.26934814 C61.80809233 2.26493452 59.32034167 2.26786738 56.83251953 2.27124023 C55.10336798 2.2705667 53.37421653 2.26959626 51.64506531 2.26834106 C48.01426292 2.26686447 44.38348509 2.26901612 40.75268555 2.27368164 C36.11021863 2.27935765 31.46780979 2.27611324 26.82534504 2.27010918 C23.25045846 2.26648436 19.67558548 2.26765134 16.10069847 2.27023697 C14.38996562 2.27090203 12.67923152 2.27009256 10.96850014 2.26775742 C8.56807851 2.26520174 6.16774882 2.26911331 3.76733398 2.2746582 C3.0662854 2.27263397 2.36523682 2.27060974 1.64294434 2.26852417 C-2.73090866 2.28712571 -6.85251365 2.69957377 -11.15576172 3.40405273 C-8.42711402 -0.65957129 -4.41446049 -0.02529825 0 0 Z "
        fill="#33A8C9" transform="translate(215.15576171875,355.595947265625)" />
    <path
        d="M0 0 C33.66 0 67.32 0 102 0 C102 0.33 102 0.66 102 1 C100.27898071 1.0154612 100.27898071 1.0154612 98.52319336 1.03123474 C87.69455165 1.12911949 76.86596547 1.23186733 66.03741455 1.33933926 C60.47076324 1.39443223 54.90410656 1.44782991 49.33740234 1.49731445 C43.96220514 1.54515964 38.58706871 1.59750872 33.21194458 1.65294075 C31.16433227 1.6732733 29.11670336 1.69200088 27.06906128 1.70907402 C24.19441755 1.73332062 21.31988656 1.76334592 18.4453125 1.79467773 C17.60445602 1.8004332 16.76359955 1.80618866 15.89726257 1.81211853 C10.8544973 1.8743263 5.99360374 2.28652269 1 3 C0.67 2.01 0.34 1.02 0 0 Z "
        fill="#120000" transform="translate(370,187)" />
    <path
        d="M0 0 C4.43744539 -0.05793591 8.87479389 -0.09357467 13.3125 -0.125 C14.57513672 -0.14175781 15.83777344 -0.15851563 17.13867188 -0.17578125 C18.95141602 -0.18544922 18.95141602 -0.18544922 20.80078125 -0.1953125 C21.91622314 -0.20578613 23.03166504 -0.21625977 24.1809082 -0.22705078 C27 0 27 0 30 2 C30.34057617 4.79736328 30.34057617 4.79736328 30.29296875 8.3203125 C30.28330078 9.57714844 30.27363281 10.83398438 30.26367188 12.12890625 C30.23853516 13.44761719 30.21339844 14.76632812 30.1875 16.125 C30.17245483 17.46482903 30.15876613 18.80467404 30.14648438 20.14453125 C30.11102872 23.43008842 30.06160849 26.71484582 30 30 C29.34 30.33 28.68 30.66 28 31 C27.505 17.14 27.505 17.14 27 3 C24.40125 2.979375 21.8025 2.95875 19.125 2.9375 C17.89934326 2.92384399 17.89934326 2.92384399 16.64892578 2.90991211 C12.69633874 2.80849359 12.69633874 2.80849359 9 4 C9 3.01 9 2.02 9 1 C5.7 1.33 2.4 1.66 -1 2 C-0.67 1.34 -0.34 0.68 0 0 Z "
        fill="#1196CC" transform="translate(67,296)" />
    <path
        d="M0 0 C0.66 0.33 1.32 0.66 2 1 C1.34 1.66 0.68 2.32 0 3 C-0.27844932 5.71934335 -0.27844932 5.71934335 -0.1953125 8.8828125 C-0.18886719 10.04941406 -0.18242187 11.21601563 -0.17578125 12.41796875 C-0.15902344 13.64128906 -0.14226562 14.86460937 -0.125 16.125 C-0.11597656 17.35605469 -0.10695313 18.58710938 -0.09765625 19.85546875 C-0.07402548 22.90383815 -0.04108054 25.95182382 0 29 C3.77112931 28.86125385 7.54181445 28.71278907 11.3125 28.5625 C12.9202832 28.50352539 12.9202832 28.50352539 14.56054688 28.44335938 C15.58857422 28.40146484 16.61660156 28.35957031 17.67578125 28.31640625 C19.0975769 28.26141968 19.0975769 28.26141968 20.5480957 28.20532227 C23.136171 28.08569813 23.136171 28.08569813 26 27 C26.33 24.36 26.66 21.72 27 19 C27.33 19 27.66 19 28 19 C28.02688151 20.64574566 28.04634123 22.29161413 28.0625 23.9375 C28.07410156 24.85402344 28.08570313 25.77054687 28.09765625 26.71484375 C28 29 28 29 27 30 C24.85441173 30.08775605 22.70595579 30.10695219 20.55859375 30.09765625 C19.38353271 30.09515869 18.20847168 30.09266113 16.99780273 30.09008789 C15.49290283 30.08098389 13.98800293 30.07187988 12.4375 30.0625 C7.673125 30.041875 2.90875 30.02125 -2 30 C-2 20.43 -2 10.86 -2 1 C-1.34 0.67 -0.68 0.34 0 0 Z "
        fill="#39C7F0" transform="translate(283,241)" />
    <path
        d="M0 0 C0.99 0.495 0.99 0.495 2 1 C4.08152667 1.09738781 6.16619734 1.13076841 8.25 1.1328125 C10.12171875 1.13474609 10.12171875 1.13474609 12.03125 1.13671875 C13.99578125 1.13091797 13.99578125 1.13091797 16 1.125 C17.3096875 1.12886719 18.619375 1.13273437 19.96875 1.13671875 C21.2165625 1.13542969 22.464375 1.13414062 23.75 1.1328125 C24.89984375 1.13168457 26.0496875 1.13055664 27.234375 1.12939453 C29.95954475 1.18894568 29.95954475 1.18894568 32 0 C31.34 1.32 30.68 2.64 30 4 C20.43 4.33 10.86 4.66 1 5 C0.67 3.35 0.34 1.7 0 0 Z "
        fill="#043048" transform="translate(403,326)" />
    <path
        d="M0 0 C0.33 0 0.66 0 1 0 C1.02505615 0.6705542 1.0501123 1.3411084 1.07592773 2.03198242 C1.19230801 5.0839959 1.31484348 8.13573258 1.4375 11.1875 C1.47681641 12.24259766 1.51613281 13.29769531 1.55664062 14.38476562 C1.59853516 15.40634766 1.64042969 16.42792969 1.68359375 17.48046875 C1.72025146 18.41785889 1.75690918 19.35524902 1.79467773 20.32104492 C1.97712209 23.40824556 1.97712209 23.40824556 3 28 C16.365 28.495 16.365 28.495 30 29 C30 29.33 30 29.66 30 30 C25.8882744 30.02465746 21.77657722 30.04283959 17.66479492 30.05493164 C16.26504772 30.0599708 14.8653058 30.06680216 13.46557617 30.07543945 C11.45754223 30.0875232 9.44947043 30.09269807 7.44140625 30.09765625 C6.23170166 30.10289307 5.02199707 30.10812988 3.77563477 30.11352539 C1 30 1 30 0 29 C-0.08775605 26.85441173 -0.10695219 24.70595579 -0.09765625 22.55859375 C-0.09443359 21.25341797 -0.09121094 19.94824219 -0.08789062 18.60351562 C-0.07953401 17.2148431 -0.07106905 15.82617123 -0.0625 14.4375 C-0.05748666 13.04492344 -0.05292347 11.65234519 -0.04882812 10.25976562 C-0.03699434 6.8398013 -0.0205088 3.41992156 0 0 Z "
        fill="#16A0D8" transform="translate(65,298)" />
    <path
        d="M0 0 C0.33 0 0.66 0 1 0 C1 8.91 1 17.82 1 27 C4.07657338 27.76914334 6.44405157 28.16965109 9.546875 28.31640625 C10.39121094 28.35830078 11.23554688 28.40019531 12.10546875 28.44335938 C13.41451172 28.50233398 13.41451172 28.50233398 14.75 28.5625 C16.08224609 28.62727539 16.08224609 28.62727539 17.44140625 28.69335938 C19.62745963 28.79913615 21.81362089 28.90122546 24 29 C24 29.33 24 29.66 24 30 C16.41 30 8.82 30 1 30 C-0.40912096 27.18175808 -0.11183553 24.82748718 -0.09765625 21.6796875 C-0.09443359 20.42285156 -0.09121094 19.16601562 -0.08789062 17.87109375 C-0.07951172 16.55238281 -0.07113281 15.23367188 -0.0625 13.875 C-0.05748489 12.53515789 -0.05292201 11.195314 -0.04882812 9.85546875 C-0.03701086 6.57026794 -0.02053617 3.28515603 0 0 Z "
        fill="#36B8DA" transform="translate(188,241)" />
    <path
        d="M0 0 C2.4897016 2.3814537 3.94046531 3.77371348 4.11352539 7.33837891 C4.10567017 8.76802979 4.10567017 8.76802979 4.09765625 10.2265625 C4.09282227 11.7734375 4.09282227 11.7734375 4.08789062 13.3515625 C4.07951172 14.43179688 4.07113281 15.51203125 4.0625 16.625 C4.05798828 17.71296875 4.05347656 18.8009375 4.04882812 19.921875 C4.03701776 22.61463789 4.02054778 25.30729188 4 28 C3.34 28 2.68 28 2 28 C1.97494385 27.40050537 1.9498877 26.80101074 1.92407227 26.18334961 C1.80714227 23.43456676 1.68486053 20.68604625 1.5625 17.9375 C1.50352539 16.52307617 1.50352539 16.52307617 1.44335938 15.08007812 C1.21274604 9.98884522 0.8300873 5.02935244 0 0 Z "
        fill="#370C10" transform="translate(233,142)" />
    <path
        d="M0 0 C2 2 2 2 2.23046875 4.05859375 C2.21628906 4.84363281 2.20210938 5.62867188 2.1875 6.4375 C2.18105469 7.21996094 2.17460937 8.00242187 2.16796875 8.80859375 C2 11 2 11 1 14 C0.34 14 -0.32 14 -1 14 C-0.67 9.38 -0.34 4.76 0 0 Z "
        fill="#616F7F" transform="translate(483,465)" />
    <path
        d="M0 0 C0.33 0 0.66 0 1 0 C1.25 6.625 1.25 6.625 -1 10 C-4.125 11.1875 -4.125 11.1875 -7 12 C-6.57847656 11.38511719 -6.15695312 10.77023437 -5.72265625 10.13671875 C-4.90087891 8.92435547 -4.90087891 8.92435547 -4.0625 7.6875 C-3.51722656 6.88699219 -2.97195313 6.08648437 -2.41015625 5.26171875 C-0.86162674 2.9741857 -0.86162674 2.9741857 0 0 Z "
        fill="#D8C9A6" transform="translate(449,328)" />
    <path
        d="M0 0 C0.886875 0.825 1.77375 1.65 2.6875 2.5 C5.01307407 4.46099476 5.74787194 4.97259478 8.875 5.3125 C9.57625 5.209375 10.2775 5.10625 11 5 C10.01 7.31 9.02 9.62 8 12 C7.67 12 7.34 12 7 12 C7 10.35 7 8.7 7 7 C6.21625 6.71125 5.4325 6.4225 4.625 6.125 C2 5 2 5 0 3 C0 2.01 0 1.02 0 0 Z "
        fill="#DFDAD6" transform="translate(130,73)" />
    <path
        d="M0 0 C0.66 0.33 1.32 0.66 2 1 C-0.66666667 3.66666667 -3.33333333 6.33333333 -6 9 C-6.33 8.34 -6.66 7.68 -7 7 C-4.78071806 4.09197539 -3.07030857 2.04687238 0 0 Z "
        fill="#332C1E" transform="translate(60,283)" />
    <path
        d="M0 0 C-0.99 0.66 -1.98 1.32 -3 2 C-4.40133435 3.03425441 -5.79690305 4.07635312 -7.1875 5.125 C-7.90292969 5.66382813 -8.61835938 6.20265625 -9.35546875 6.7578125 C-9.89816406 7.16773438 -10.44085938 7.57765625 -11 8 C-10.67 6.68 -10.34 5.36 -10 4 C-9.34 4 -8.68 4 -8 4 C-8 3.34 -8 2.68 -8 2 C-4.77208445 -0.1519437 -3.71599191 -0.20086443 0 0 Z "
        fill="#D5C9A6" transform="translate(402,282)" />
    <path
        d="M0 0 C0.66 0.33 1.32 0.66 2 1 C0.88121617 2.17262904 -0.24523051 3.33795138 -1.375 4.5 C-2.00148437 5.1496875 -2.62796875 5.799375 -3.2734375 6.46875 C-5 8 -5 8 -7 8 C-5.50902342 4.2047869 -3.24299151 2.38957269 0 0 Z "
        fill="#333029" transform="translate(198,344)" />
    <path
        d="M0 0 C1.32 0 2.64 0 4 0 C4 0.66 4 1.32 4 2 C5.98 2 7.96 2 10 2 C10 2.33 10 2.66 10 3 C6.04 3 2.08 3 -2 3 C-1.34 2.01 -0.68 1.02 0 0 Z "
        fill="#E7384D" transform="translate(468,182)" />
    <path
        d="M0 0 C3.375 0.25 3.375 0.25 7 1 C8.4375 3.0625 8.4375 3.0625 9 5 C8.34 5.66 7.68 6.32 7 7 C7 5.68 7 4.36 7 3 C5.824375 2.814375 5.824375 2.814375 4.625 2.625 C2 2 2 2 0 0 Z "
        fill="#38B9D7" transform="translate(289,357)" />
    <path
        d="M0 0 C0.99 1.32 1.98 2.64 3 4 C2.67 4.66 2.34 5.32 2 6 C-1 6 -1 6 -4 5 C-2.68 3.35 -1.36 1.7 0 0 Z "
        fill="#DCCCA5" transform="translate(108,334)" />
    <path d="M0 0 C1 4 1 4 0.3125 6.1875 C-1 8 -1 8 -5 9 C-3.35 6.03 -1.7 3.06 0 0 Z "
        fill="#CB5363" transform="translate(236,102)" />
    <path
        d="M0 0 C-2.33333333 2.33333333 -4.66666667 4.66666667 -7 7 C-6.67 4.69 -6.34 2.38 -6 0 C-3 -1 -3 -1 0 0 Z "
        fill="#310407" transform="translate(22,162)" />
    <path
        d="M0 0 C0.66 0.33 1.32 0.66 2 1 C-0.31 3.64 -2.62 6.28 -5 9 C-5 4.61031544 -2.87194899 3.23094261 0 0 Z "
        fill="#BEBAB0" transform="translate(153,20)" />
    <path
        d="M0 0 C0.99 0.33 1.98 0.66 3 1 C1.37660195 2.70884005 -0.29319053 4.37446717 -2 6 C-2.66 6 -3.32 6 -4 6 C-2.84826645 3.53199953 -1.95216435 1.95216435 0 0 Z "
        fill="#282820" transform="translate(195,98)" />
</svg>